<?xml version="1.0" encoding="utf-8"?>
<!-- Generator: Adobe Illustrator 28.1.0, SVG Export Plug-In . SVG Version: 6.00 Build 0)  -->
<svg version="1.1" id="Layer_1" xmlns="http://www.w3.org/2000/svg" xmlns:xlink="http://www.w3.org/1999/xlink" x="0px" y="0px"
	 viewBox="0 0 134.5 32.9" style="enable-background:new 0 0 134.5 32.9;" xml:space="preserve">
<style type="text/css">
	.st0{fill:#FFFFFF;}
</style>
<g>
	<path class="st0" d="M124.1,2.2c-5.6-4.1-13.5,5.4-14.1,6.2c0,0,0,0,0,0c-2.8,0.4-5.4,1.9-7.2,3.7c-0.1,0.1-1.9,1.5-1.9,4.2
		c0,0.6,0.1,1.3,0.5,2c0.9,2,3.5,2,5.2,1.8c0.6,3.4,2.5,6.8,6.3,7.5c5.3,1,10.4-3.9,10.8-7.9c0.5-3.9-2.1-7.3-2.2-7.4
		C127.8,5.2,124.1,2.2,124.1,2.2L124.1,2.2z M107.7,18.4C107.7,18.4,107.7,18.4,107.7,18.4c-0.3-1.4-0.3-2.6-0.1-3.3
		c0.3-1.6,1.5-5.1,2.5-5.7c0.4,0,0.8-0.1,1.1-0.1c0.2,0,0.5,0,0.7,0c3.5,0.2,6.5,2.5,7.3,3.2C114.9,16.8,108.6,18.2,107.7,18.4
		L107.7,18.4L107.7,18.4z M109.3,9.4c0.3,0,0.5-0.1,0.8-0.1L109.3,9.4z M110.8,8.3L110.8,8.3c5.3-6.6,13.4-7.4,12-2
		c-0.5,1.8-1.3,3.4-2.3,4.7c-2.8-2.5-7.3-2.7-9-2.7C111.3,8.2,111,8.2,110.8,8.3C110.8,8.3,110.8,8.3,110.8,8.3L110.8,8.3z
		 M109.1,9.4c-0.1,0.1-2.2,2.6-2.7,6.7c-0.1,0.8-0.1,1.6,0,2.5c-0.4,0.1-0.9,0.1-1.6,0.2c-1.4-0.1-3.3-0.7-3.1-3.4
		C102.1,12.1,105.6,10,109.1,9.4z M118,23.7c-0.9,0.7-2,1.2-3.3,1.3c0,0-0.1,0-0.1,0c-0.1,0-0.1,0-0.2,0c0,0-0.1,0-0.1,0v0
		c-0.5,0-1-0.1-1.6-0.2c-2.7-0.7-4.1-2.9-4.8-5.1c2.4-0.5,7.5-2,11.8-6c0.8,1.3,1.3,2.8,1.3,4.3C121.1,20.2,119.8,22.4,118,23.7
		L118,23.7z"/>
	<g>
		<path class="st0" d="M16.4,24c0-1.9-1.3-2.6-3.9-2.6H8.2L6.7,31.5h5.5c2.7,0,4-1,4-3.1c0-0.9-0.5-1.7-1.3-2
			C15.9,25.9,16.4,25.1,16.4,24L16.4,24z M11.8,29.2h-1.6l0.3-1.9h1.4c0.9,0,1.4,0.2,1.4,0.9C13.2,28.9,12.7,29.2,11.8,29.2z
			 M12,25.4h-1.3l0.3-1.8h1c1,0,1.4,0.1,1.4,0.8C13.4,25.2,13,25.4,12,25.4L12,25.4z"/>
		<path class="st0" d="M22.7,23.8c-0.1,0-0.2,0-0.4,0c-0.9,0-1.5,0.4-2.1,1.3l0.2-1.1h-2.6l-1.1,7.5h2.8l0.4-2.8
			c0.2-1.4,0.5-2,1.7-2c0.2,0,0.4,0,0.7,0.1L22.7,23.8L22.7,23.8z"/>
		<path class="st0" d="M27,23.8c-2.5,0-3.8,0.8-4,2.5h2.8c0.1-0.5,0.4-0.8,1-0.8c0.6,0,0.9,0.3,0.9,0.6c0,0.6-0.6,0.6-1.8,0.7
			c-2.5,0.3-3.7,0.9-3.7,2.8c0,1.2,0.9,2.1,2.4,2.1c0.9,0,1.8-0.3,2.6-0.9l0.1,0.7h2.8v-0.2c-0.2-0.2-0.3-0.4-0.3-0.7
			c0-0.1,0-0.4,0.1-0.6l0.4-2.7c0.1-0.5,0.1-0.9,0.1-1.1C30.5,24.6,29.3,23.8,27,23.8L27,23.8z M25.9,30c-0.5,0-0.8-0.3-0.8-0.6
			c0-0.9,0.8-0.7,2.3-1.2C27.4,29.3,26.8,30,25.9,30L25.9,30z"/>
		<path class="st0" d="M35.5,25.8c0.7,0,1,0.4,1,1.1h2.8c0-1.9-1.4-3.1-3.8-3.1c-2.6,0-4.3,1.8-4.3,4.4c0,2.1,1.5,3.6,4,3.6
			c2.2,0,3.7-1.1,4.1-3.1h-2.8c-0.1,0.7-0.6,1.1-1.2,1.1c-0.7,0-1.1-0.5-1.1-1.5C34.1,26.7,34.6,25.8,35.5,25.8L35.5,25.8z"/>
		<polygon class="st0" points="48.8,24 45.4,24 43.3,26.4 44,21.4 41.2,21.4 39.7,31.5 42.5,31.5 42.8,29.5 43.6,28.7 44.7,31.5 
			47.8,31.5 45.7,27 		"/>
		<path class="st0" d="M52.6,23.8c-2.6,0-4.4,1.7-4.4,4.5c0,2.1,1.5,3.5,4.1,3.5c2.1,0,3.6-0.9,4-2.4h-2.8c-0.1,0.4-0.5,0.6-1.1,0.6
			c-0.8,0-1.3-0.5-1.3-1.4v-0.1h5.4c0-0.3,0-0.5,0-0.7C56.7,25.1,55.3,23.8,52.6,23.8L52.6,23.8z M51.3,26.9
			c0.1-0.9,0.6-1.4,1.4-1.4c0.7,0,1.2,0.5,1.2,1.4L51.3,26.9L51.3,26.9z"/>
		<path class="st0" d="M63.2,23.8c-1,0-1.8,0.4-2.5,1.2l0.1-1h-2.6l-1.1,7.5h2.9l0.6-4c0.1-1,0.5-1.5,1.3-1.5c0.6,0,0.9,0.4,0.9,0.8
			c0,0.1,0,0.2,0,0.4l-0.6,4.2h2.9l0.6-4.3c0.1-0.4,0.1-0.7,0.1-1C65.6,24.8,64.7,23.8,63.2,23.8L63.2,23.8z"/>
		<path class="st0" d="M72.2,23.8c-0.9,0-1.6,0.4-2.2,1.1l0.5-3.5h-2.9l-1.5,10.1H69l0.6-4c0.1-1,0.5-1.4,1.3-1.4
			c0.6,0,0.9,0.3,0.9,0.9c0,0.1,0,0.3-0.1,0.6l-0.5,3.9H74l0.6-4.5c0-0.3,0-0.5,0-0.8C74.6,24.7,73.7,23.8,72.2,23.8L72.2,23.8z"/>
		<path class="st0" d="M79.7,23.8c-2.6,0-4.4,1.7-4.4,4.5c0,2.1,1.5,3.5,4.1,3.5c2.1,0,3.6-0.9,4-2.4h-2.8c-0.1,0.4-0.5,0.6-1.1,0.6
			c-0.8,0-1.3-0.5-1.3-1.4v-0.1h5.4c0-0.3,0-0.5,0-0.7C83.7,25.1,82.3,23.8,79.7,23.8L79.7,23.8z M78.4,26.9
			c0.1-0.9,0.6-1.4,1.4-1.4c0.7,0,1.2,0.5,1.2,1.4L78.4,26.9L78.4,26.9z"/>
		<path class="st0" d="M88.9,23.8c-2.5,0-3.8,0.8-4,2.5h2.8c0.1-0.5,0.4-0.8,1-0.8c0.6,0,0.9,0.3,0.9,0.6c0,0.6-0.6,0.6-1.8,0.7
			c-2.5,0.3-3.7,0.9-3.7,2.8c0,1.2,0.9,2.1,2.4,2.1c0.9,0,1.8-0.3,2.6-0.9l0.1,0.7H92v-0.2c-0.2-0.2-0.3-0.4-0.3-0.7
			c0-0.1,0-0.4,0.1-0.6l0.4-2.7c0.1-0.5,0.1-0.9,0.1-1.1C92.4,24.6,91.2,23.8,88.9,23.8L88.9,23.8z M87.7,30c-0.5,0-0.8-0.3-0.8-0.6
			c0-0.9,0.8-0.7,2.3-1.2C89.2,29.3,88.6,30,87.7,30L87.7,30z"/>
		<path class="st0" d="M96.2,28.8c0-0.1,0-0.1,0-0.2l0.4-2.9h1.1L98,24h-1.1l0.3-2.3h-2.8L94.1,24h-1.1l-0.3,1.7h1.1L93.4,29
			c-0.1,0.4-0.1,0.6-0.1,0.8c0,1.1,0.8,1.7,2.2,1.7c0.4,0,1,0,1.6-0.1l0.3-2.1c-0.1,0-0.2,0-0.4,0C96.5,29.4,96.2,29.2,96.2,28.8
			L96.2,28.8z"/>
		<path class="st0" d="M103.8,23.8c-0.9,0-1.6,0.4-2.2,1.1l0.5-3.5h-2.9l-1.5,10.1h2.8l0.6-4c0.1-1,0.5-1.4,1.3-1.4
			c0.6,0,0.9,0.3,0.9,0.9c0,0.1,0,0.3-0.1,0.6l-0.5,3.9h2.9l0.6-4.5c0-0.3,0-0.5,0-0.8C106.2,24.7,105.3,23.8,103.8,23.8L103.8,23.8
			z"/>
	</g>
</g>
</svg>
