<svg xmlns="http://www.w3.org/2000/svg" width="186.14" height="60" viewBox="0 0 186.14 60"><defs><style>.a{fill:#fff;}</style></defs><g transform="translate(-13.701 -10.835)"><g transform="translate(59.827 19.617)"><path class="a" d="M181.066,56.779a8.318,8.318,0,0,0,2.263-.169,2.079,2.079,0,0,0,.781-3.556,4.68,4.68,0,0,0-3.044-.634Zm0-6.551a5.838,5.838,0,0,0,1.777-.146,1.736,1.736,0,0,0,1.267-1.68,1.555,1.555,0,0,0-1.169-1.511,6.22,6.22,0,0,0-1.875-.146Zm-5.773-7.089h8.4c1.338,0,3.8.049,5.285,1.7a3.422,3.422,0,0,1,.925,2.438,3.478,3.478,0,0,1-1.072,2.556,5.555,5.555,0,0,1-2.241,1.34,6.341,6.341,0,0,1,2.363.876,4.138,4.138,0,0,1,1.975,3.51A4.347,4.347,0,0,1,189.152,59a7.62,7.62,0,0,1-5.116,1.338h-8.744Z" transform="translate(-175.293 -42.7)"/><path class="a" d="M245.415,51.224c1.97-.049,3.847-.559,3.847-2.436,0-2.119-2.338-2.119-3.847-2.119ZM239.2,43.137h9.988a7.658,7.658,0,0,1,4.555,1.12,4.431,4.431,0,0,1,1.852,3.7,4.753,4.753,0,0,1-2.9,4.41,63.5,63.5,0,0,0,3.823,7.965h-6.356c-1.56-3.021-1.923-3.8-3.337-7.015l-1.411.049v6.966H239.2Z" transform="translate(-220.958 -42.699)"/><rect class="a" width="6.407" height="17.198" transform="translate(37.511 0.439)"/><path class="a" d="M333.842,43.139H348.7v3.874h-4.213V60.336h-6.31V47.013h-4.335Z" transform="translate(-288.584 -42.7)"/><rect class="a" width="6.407" height="17.198" transform="translate(61.356 0.439)"/><path class="a" d="M438.94,55.852c-.8,1.047-2.971,3.849-8.184,3.849-6.09,0-9.11-4.433-9.11-8.794a9.238,9.238,0,0,1,9.7-9.3,8.894,8.894,0,0,1,7.525,3.7l-2.36,1.828a4.375,4.375,0,0,0-3.679-2c-3.41,0-4.677,2.949-4.677,5.407,0,3.339,2.068,5.238,4.555,5.238a6.177,6.177,0,0,0,4.191-1.924Z" transform="translate(-351.324 -41.602)"/><path class="a" d="M503.019,43.139v3.874h-6.8v2.7h5.624v3.508h-5.624v3.241h7.745v3.871H489.914v-17.2Z" transform="translate(-400.105 -42.7)"/><path class="a" d="M548.708,43.139h3.922l7.452,8.136V43.139h4.628v17.2h-3.288l-8.087-8.719v8.719h-4.628Z" transform="translate(-442.116 -42.7)"/><path class="a" d="M609.463,43.139h14.858v3.874h-4.213V60.336H613.8V47.013h-4.335Z" transform="translate(-485.529 -42.7)"/></g><g transform="translate(59.195 41.033)"><path class="a" d="M174.71,125.046a3.36,3.36,0,0,0,2.868,1.615c1.171,0,1.861-.51,1.861-1.2,0-.743-.675-.974-.987-1.072-.362-.115-2.159-.495-2.556-.625a3.253,3.253,0,0,1-2.54-3.2c0-1.748,1.338-3.874,5-3.874,3.33,0,4.286,1.384,4.978,2.423l-1.648,1.054a2.647,2.647,0,0,0-2.356-1.251c-1.2,0-1.733.561-1.733,1.187a.834.834,0,0,0,.546.808c.4.2,2.571.659,3.048.823a3.22,3.22,0,0,1,2.523,3.133c0,2.341-2.192,4.056-5.5,4.056-3.579,0-4.7-2.043-5.127-2.853Z" transform="translate(-173.079 -116.67)"/><rect class="a" width="4.335" height="11.636" transform="translate(12.248 0.298)"/><path class="a" d="M234.349,117.668h10.057v2.62h-2.853V129.3h-4.269v-9.016h-2.935Z" transform="translate(-216.859 -117.37)"/><path class="a" d="M281.448,117.668v2.62h-4.6v1.83h3.809v2.374h-3.809v2.194h5.243V129.3h-9.511V117.668Z" transform="translate(-244.178 -117.37)"/><path class="a" d="M335.619,117.668v2.62h-4.6v1.83h3.8v2.374h-3.8v2.194h5.242V129.3h-9.513V117.668Z" transform="translate(-282.884 -117.37)"/><path class="a" d="M366.542,117.668h4.3v9.019h4.617V129.3h-8.919Z" transform="translate(-311.318 -117.37)"/><path class="a" d="M410.234,117.668v2.62h-4.6v1.83h3.807v2.374h-3.807v2.194h5.243V129.3h-9.511V117.668Z" transform="translate(-336.201 -117.37)"/><path class="a" d="M449.919,126.268a6.4,6.4,0,0,1-5.54,2.6,5.821,5.821,0,0,1-6.163-5.95,6.252,6.252,0,0,1,6.558-6.3,6.034,6.034,0,0,1,5.1,2.507l-1.6,1.236a2.963,2.963,0,0,0-2.489-1.351c-2.31,0-3.166,1.994-3.166,3.658,0,2.258,1.4,3.545,3.082,3.545a4.155,4.155,0,0,0,2.835-1.3Z" transform="translate(-362.533 -116.624)"/><path class="a" d="M480.413,117.668h10.055v2.62h-2.851V129.3h-4.269v-9.016h-2.935Z" transform="translate(-392.684 -117.37)"/><path class="a" d="M522.844,123.144c1.336-.033,2.6-.38,2.6-1.648,0-1.436-1.582-1.436-2.6-1.436Zm-4.2-5.474h6.76a5.18,5.18,0,0,1,3.081.759,2.99,2.99,0,0,1,1.254,2.5,3.216,3.216,0,0,1-1.961,2.984,42.049,42.049,0,0,0,2.589,5.389h-4.306c-1.052-2.043-1.3-2.571-2.256-4.746l-.956.033v4.712h-4.2Z" transform="translate(-420 -117.371)"/><rect class="a" width="4.335" height="11.636" transform="translate(111.68 0.298)"/><path class="a" d="M597.284,126.268a6.4,6.4,0,0,1-5.537,2.6,5.821,5.821,0,0,1-6.165-5.95,6.252,6.252,0,0,1,6.56-6.3,6.027,6.027,0,0,1,5.094,2.507l-1.6,1.236a2.963,2.963,0,0,0-2.489-1.351c-2.31,0-3.164,1.994-3.164,3.658,0,2.258,1.4,3.545,3.081,3.545a4.165,4.165,0,0,0,2.835-1.3Z" transform="translate(-467.832 -116.624)"/><path class="a" d="M630.172,125.046a3.359,3.359,0,0,0,2.866,1.615c1.174,0,1.866-.51,1.866-1.2,0-.743-.677-.974-.992-1.072-.362-.115-2.159-.495-2.554-.625a3.249,3.249,0,0,1-2.538-3.2c0-1.748,1.333-3.874,4.994-3.874,3.33,0,4.286,1.384,4.979,2.423l-1.648,1.054a2.652,2.652,0,0,0-2.358-1.251c-1.2,0-1.728.561-1.728,1.187a.829.829,0,0,0,.544.808c.395.2,2.571.659,3.048.823a3.22,3.22,0,0,1,2.523,3.133c0,2.341-2.192,4.056-5.507,4.056-3.576,0-4.7-2.043-5.127-2.853Z" transform="translate(-498.528 -116.67)"/></g><path class="a" d="M40.024,181.9v3.794a1.17,1.17,0,1,0,2.341,0V181.9a1.59,1.59,0,0,1,.552.182v5.981a.877.877,0,0,0,1.755,0v-5.045a5.027,5.027,0,0,1,1.456,1.682,8.146,8.146,0,0,1,.342.763,5.5,5.5,0,0,1-1.152,5.811,5.638,5.638,0,0,1-5.531,1.615,5.869,5.869,0,0,1-4.24-5.467,6.064,6.064,0,0,1,2.167-4.459v5.1a.879.879,0,0,0,1.757,0v-5.952c.075-.16.552-.215.552-.215" transform="translate(-15.61 -122.234)"/><g transform="translate(19.937 59.665)"><path class="a" d="M40.024,181.9v3.794a1.17,1.17,0,1,0,2.341,0V181.9a1.59,1.59,0,0,1,.552.182v5.981a.877.877,0,0,0,1.755,0v-5.045a5.027,5.027,0,0,1,1.456,1.682,8.146,8.146,0,0,1,.342.763,5.5,5.5,0,0,1-1.152,5.811,5.638,5.638,0,0,1-5.531,1.615,5.869,5.869,0,0,1-4.24-5.467,6.064,6.064,0,0,1,2.167-4.459v5.1a.879.879,0,0,0,1.757,0v-5.952c.075-.16.552-.215.552-.215" transform="translate(-35.547 -181.899)"/></g><path class="a" d="M53.689,12.291a7.3,7.3,0,0,0-4.468-1.456H20.2a7.286,7.286,0,0,0-4.466,1.456A4.963,4.963,0,0,0,13.7,16.2V53.556a4.96,4.96,0,0,0,2.036,3.907,6.758,6.758,0,0,0,2.141,1.1,7.705,7.705,0,0,1,1-2.966,3.566,3.566,0,0,1-1.132-.572,1.893,1.893,0,0,1-.83-1.471V16.2a1.9,1.9,0,0,1,.83-1.471,4.039,4.039,0,0,1,2.456-.77H49.22a4.022,4.022,0,0,1,2.454.77,1.906,1.906,0,0,1,.832,1.471V53.556a1.9,1.9,0,0,1-.832,1.471,4.024,4.024,0,0,1-2.454.772H32.5a7.753,7.753,0,0,1,.934,3.121H49.22a7.307,7.307,0,0,0,4.468-1.458,4.971,4.971,0,0,0,2.035-3.907V16.2a4.975,4.975,0,0,0-2.035-3.907"/><path class="a" d="M45.751,76.336V70.685a6.4,6.4,0,0,0-3.94-5.91V39.257c0-5.3,2.758-8.32,7.206-8.32,3.818,0,6.467,2.489,6.467,5.988,0,3.286-2.7,5.615-7.472,5.615H43.664v4.452h6.15c4.5,0,7.206,2.438,7.206,6.148,0,3.814-2.649,6.3-7.206,6.3h-6.15v4.663h6.1c7.739,0,12.453-4.663,12.453-10.862a9.543,9.543,0,0,0-5.935-9.008,8.762,8.762,0,0,0,4.186-7.576c0-5.566-4.874-10.23-11.605-10.23-7.259,0-11.923,5.087-11.923,14.15V64.757a6.4,6.4,0,0,0-3.987,5.928v5.651s.1-6.39,6.387-6.39,6.414,6.39,6.414,6.39" transform="translate(-13.754 -11.144)"/></g></svg>