<?xml version="1.0" encoding="utf-8"?>
<!-- Generator: Adobe Illustrator 23.0.0, SVG Export Plug-In . SVG Version: 6.00 Build 0)  -->
<svg version="1.1" id="Layer_1" xmlns="http://www.w3.org/2000/svg" xmlns:xlink="http://www.w3.org/1999/xlink" x="0px" y="0px"
	width="150" height="60" viewBox="0 0 142.4 57.4" style="enable-background:new 0 0 142.4 57.4;" xml:space="preserve">
<style type="text/css">
	.st0{fill:#FFFFFF;}
</style>
<path class="st0" d="M142.1,32v-7.2h-8.9V0.7h-8.2V32H142.1z M123.5,32v-7.1h-8.8v-5.2h8.2v-6.9h-8.2V8h8.7V0.7h-16.7V32H123.5z
	 M104.6,32V0.7h-7.5v12.4L92.7,0.7H86V32h7.4V19.8L97.9,32H104.6z M83.9,32V0.7h-7.5v12.4L72,0.7h-6.7V32h7.4V19.8L77.1,32H83.9z
	 M54.4,18.5h-2.2c0,0,0.7-4.2,0.8-5c0.3-2,0.4-4,0.4-4s0.1,2.1,0.4,4C53.8,14.2,54.4,18.5,54.4,18.5 M51.6,24.3h3.5l1,7.7h8.1
	L59.3,0.7H47.9L42.5,32h8L51.6,24.3z M41.4,32V0.7h-8v12.2h-3.5V0.7H22V32h7.9V19.8h3.5V32H41.4z M20.4,19.9h-7.7
	c0,0.5-0.1,2.4-0.2,3.9c-0.2,1.1-0.7,1.5-1.6,1.5c-0.9,0-1.5-0.3-1.8-1.5c-0.2-0.8-0.4-4.1-0.4-7.7c0-2.2,0-4.8,0.4-6.8
	c0.2-0.9,0.7-1.6,1.8-1.6c1,0,1.5,0.6,1.7,1.5c0.1,1,0.2,2.5,0.2,3.9h7.7c0-1.2,0-3.9-0.2-5.1c-0.5-4.9-3.5-7.5-9.2-7.5
	C5.8,0.4,2,2.7,1.2,6.7c-0.6,2.9-0.8,5.1-0.8,9.5c0,4.5,0.3,8.4,1.1,10.8c1.1,3.1,3.7,5.3,9.1,5.3c6,0,9-2.7,9.5-6.9
	C20.4,23.4,20.4,20.9,20.4,19.9"/>
<path class="st0" d="M131.5,42.2h-2.5l3.7,10.4l-0.3,0.9c-0.2,0.5-0.4,0.9-0.7,1.1c-0.3,0.2-0.7,0.3-1.3,0.3l-0.4,0v1.8
	c0.4,0.1,0.8,0.2,1.1,0.2c1.5,0,2.6-0.9,3.3-2.6l4.2-12.1h-2.5l-2.1,7.1L131.5,42.2z M123.2,39.7v2.6h-1.7V44h1.7v5.9
	c0,2,0.9,3,2.7,3c0.5,0,1-0.1,1.6-0.2v-1.8c-0.3,0.1-0.6,0.1-0.8,0.1c-0.4,0-0.7-0.1-0.8-0.3c-0.2-0.2-0.2-0.5-0.2-0.9V44h1.9v-1.7
	h-1.9v-2.6H123.2z M117.4,44.5c0.4,0.4,0.6,1,0.6,1.8v0.2h-4.5c0.1-0.8,0.4-1.4,0.8-1.9c0.4-0.5,0.9-0.7,1.6-0.7
	C116.5,43.9,117,44.1,117.4,44.5 M118.5,52.4c0.7-0.3,1.3-0.8,1.7-1.5l-1.3-1.2c-0.7,0.9-1.6,1.3-2.6,1.3c-0.8,0-1.4-0.3-1.9-0.8
	c-0.5-0.5-0.8-1.2-0.9-2.1h6.9v-0.9c0-1.7-0.4-3-1.2-3.9c-0.8-0.9-1.9-1.4-3.3-1.4c-0.9,0-1.7,0.2-2.4,0.7c-0.7,0.5-1.3,1.1-1.7,1.9
	c-0.4,0.8-0.6,1.8-0.6,2.8v0.3c0,1.6,0.5,2.8,1.4,3.8c0.9,0.9,2.1,1.4,3.6,1.4C117,52.9,117.8,52.8,118.5,52.4 M107.6,52.7V44h2.1
	v-1.7h-2.1v-0.9c0-1.2,0.6-1.7,1.7-1.7c0.3,0,0.6,0,0.9,0.1l0.1-1.8c-0.5-0.1-0.9-0.2-1.3-0.2c-1.2,0-2.1,0.3-2.7,0.9
	c-0.6,0.6-1,1.5-1,2.7v1h-1.6V44h1.6v8.7H107.6z M96,50.6c-0.3-0.3-0.5-0.6-0.5-1.1c0-0.6,0.2-1,0.7-1.3c0.4-0.3,1.1-0.5,2-0.5h1.3
	v2c-0.2,0.4-0.5,0.7-0.9,0.9c-0.4,0.2-0.8,0.3-1.3,0.3C96.7,51,96.3,50.9,96,50.6 M102.2,52.7v-0.2c-0.3-0.6-0.4-1.3-0.4-2.3v-4.7
	c0-1.1-0.4-2-1.1-2.6c-0.7-0.6-1.7-0.9-2.9-0.9c-0.8,0-1.5,0.1-2.2,0.4c-0.7,0.3-1.2,0.7-1.6,1.2c-0.4,0.5-0.6,1-0.6,1.6h2.4
	c0-0.4,0.2-0.8,0.5-1s0.8-0.4,1.3-0.4c0.6,0,1.1,0.2,1.4,0.5c0.3,0.3,0.5,0.8,0.5,1.3v0.7H98c-1.5,0-2.7,0.3-3.6,0.9
	c-0.8,0.6-1.2,1.5-1.2,2.6c0,0.9,0.3,1.6,1,2.2c0.7,0.6,1.5,0.9,2.6,0.9c1.1,0,2-0.4,2.8-1.2c0.1,0.5,0.2,0.8,0.3,1H102.2z
	 M88.1,50.5C87.7,50.8,87,51,86.2,51c-1,0-1.7-0.2-2.3-0.7c-0.5-0.4-0.8-1.1-0.8-1.9h-2.5c0,0.9,0.2,1.7,0.7,2.3
	c0.5,0.7,1.1,1.2,2,1.6c0.9,0.4,1.8,0.6,2.8,0.6c1.5,0,2.8-0.3,3.7-1c0.9-0.7,1.4-1.6,1.4-2.8c0-0.7-0.2-1.4-0.5-1.9s-0.8-1-1.5-1.4
	s-1.5-0.8-2.6-1.1c-1.1-0.3-1.9-0.7-2.4-1c-0.5-0.3-0.7-0.8-0.7-1.3c0-0.6,0.2-1.1,0.7-1.4c0.4-0.3,1.1-0.5,1.9-0.5
	c0.9,0,1.5,0.2,2,0.6c0.5,0.4,0.7,1,0.7,1.7h2.4c0-0.8-0.2-1.6-0.7-2.2c-0.4-0.7-1-1.2-1.8-1.5c-0.8-0.4-1.6-0.5-2.6-0.5
	c-1.5,0-2.7,0.4-3.6,1.1c-0.9,0.7-1.4,1.7-1.4,2.8c0,1.3,0.6,2.4,1.9,3.2c0.7,0.4,1.6,0.8,2.7,1.1c1.1,0.3,1.9,0.7,2.4,1
	s0.7,0.8,0.7,1.4C88.7,49.7,88.5,50.1,88.1,50.5 M74.7,42.2c-0.2-0.1-0.5-0.1-0.8-0.1c-1,0-1.8,0.5-2.4,1.4l-0.1-1.2h-2.2v10.5h2.4
	v-7.2c0.4-0.8,1.1-1.2,2.2-1.2c0.3,0,0.6,0,1,0.1L74.7,42.2z M63.9,44.5c0.4,0.4,0.6,1,0.6,1.8v0.2h-4.5c0.1-0.8,0.4-1.4,0.8-1.9
	c0.4-0.5,0.9-0.7,1.6-0.7C63.1,43.9,63.6,44.1,63.9,44.5 M65,52.4c0.7-0.3,1.3-0.8,1.7-1.5l-1.3-1.2c-0.7,0.9-1.6,1.3-2.6,1.3
	c-0.8,0-1.4-0.3-1.9-0.8c-0.5-0.5-0.8-1.2-0.9-2.1h6.9v-0.9c0-1.7-0.4-3-1.2-3.9c-0.8-0.9-1.9-1.4-3.3-1.4c-0.9,0-1.7,0.2-2.4,0.7
	c-0.7,0.5-1.3,1.1-1.7,1.9c-0.4,0.8-0.6,1.8-0.6,2.8v0.3c0,1.6,0.5,2.8,1.4,3.8c0.9,0.9,2.1,1.4,3.6,1.4
	C63.6,52.9,64.3,52.8,65,52.4 M51.9,39.7v2.6h-1.7V44h1.7v5.9c0,2,0.9,3,2.7,3c0.5,0,1-0.1,1.6-0.2v-1.8c-0.3,0.1-0.6,0.1-0.8,0.1
	c-0.4,0-0.7-0.1-0.8-0.3c-0.2-0.2-0.2-0.5-0.2-0.9V44h1.9v-1.7h-1.9v-2.6H51.9z M48.9,42.2c-0.2-0.1-0.5-0.1-0.8-0.1
	c-1,0-1.8,0.5-2.4,1.4l-0.1-1.2h-2.2v10.5h2.4v-7.2c0.4-0.8,1.1-1.2,2.2-1.2c0.3,0,0.6,0,1,0.1L48.9,42.2z M34.8,50.6
	c-0.3-0.3-0.5-0.6-0.5-1.1c0-0.6,0.2-1,0.7-1.3c0.4-0.3,1.1-0.5,2-0.5h1.3v2c-0.2,0.4-0.5,0.7-0.9,0.9C36.9,50.9,36.4,51,36,51
	C35.5,51,35.1,50.9,34.8,50.6 M41,52.7v-0.2c-0.3-0.6-0.4-1.3-0.4-2.3v-4.7c0-1.1-0.4-2-1.1-2.6c-0.7-0.6-1.7-0.9-2.9-0.9
	c-0.8,0-1.5,0.1-2.2,0.4c-0.7,0.3-1.2,0.7-1.6,1.2c-0.4,0.5-0.6,1-0.6,1.6h2.4c0-0.4,0.2-0.8,0.5-1c0.3-0.3,0.8-0.4,1.3-0.4
	c0.6,0,1.1,0.2,1.4,0.5c0.3,0.3,0.5,0.8,0.5,1.3v0.7h-1.4c-1.5,0-2.7,0.3-3.6,0.9c-0.8,0.6-1.2,1.5-1.2,2.6c0,0.9,0.3,1.6,1,2.2
	c0.7,0.6,1.5,0.9,2.6,0.9c1.1,0,2-0.4,2.8-1.2c0.1,0.5,0.2,0.8,0.3,1H41z M14.7,42.2v10.5h2.4v-7.6c0.4-0.8,1.1-1.2,2-1.2
	c1.2,0,1.9,0.6,1.9,1.9v6.9h2.4l0-7.2c0.1-0.5,0.4-0.8,0.7-1.1c0.3-0.3,0.8-0.4,1.3-0.4c0.7,0,1.2,0.2,1.4,0.5
	c0.3,0.3,0.4,0.8,0.4,1.5v6.8h2.4v-6.9c0-1.2-0.3-2.2-0.9-2.8c-0.6-0.6-1.4-1-2.6-1c-1.4,0-2.5,0.5-3.2,1.6
	c-0.5-1.1-1.5-1.6-2.9-1.6c-1.3,0-2.3,0.4-3,1.3l-0.1-1.1H14.7z M9.1,50.5C8.7,50.8,8.1,51,7.2,51c-1,0-1.7-0.2-2.3-0.7
	c-0.5-0.4-0.8-1.1-0.8-1.9H1.7c0,0.9,0.2,1.7,0.7,2.3c0.5,0.7,1.1,1.2,2,1.6s1.8,0.6,2.8,0.6c1.5,0,2.8-0.3,3.7-1
	c0.9-0.7,1.4-1.6,1.4-2.8c0-0.7-0.2-1.4-0.5-1.9c-0.3-0.5-0.8-1-1.5-1.4c-0.7-0.4-1.5-0.8-2.6-1.1c-1.1-0.3-1.9-0.7-2.4-1
	s-0.7-0.8-0.7-1.3c0-0.6,0.2-1.1,0.7-1.4c0.4-0.3,1.1-0.5,1.9-0.5c0.9,0,1.5,0.2,2,0.6c0.5,0.4,0.7,1,0.7,1.7h2.4
	c0-0.8-0.2-1.6-0.7-2.2c-0.4-0.7-1-1.2-1.8-1.5c-0.8-0.4-1.6-0.5-2.6-0.5c-1.5,0-2.7,0.4-3.6,1.1c-0.9,0.7-1.4,1.7-1.4,2.8
	c0,1.3,0.6,2.4,1.9,3.2c0.7,0.4,1.6,0.8,2.7,1.1c1.1,0.3,1.9,0.7,2.4,1c0.4,0.3,0.7,0.8,0.7,1.4C9.8,49.7,9.6,50.1,9.1,50.5"/>
</svg>
