<?xml version="1.0" encoding="utf-8"?>
<!-- Generator: Adobe Illustrator 28.1.0, SVG Export Plug-In . SVG Version: 6.00 Build 0)  -->
<svg version="1.1" id="Layer_1" xmlns="http://www.w3.org/2000/svg" xmlns:xlink="http://www.w3.org/1999/xlink" x="0px" y="0px"
	 viewBox="0 0 1028.8 344" style="enable-background:new 0 0 1028.8 344;" xml:space="preserve">
<style type="text/css">
	.st0{fill:#FFFFFF;}
</style>
<g>
	<path class="st0" d="M681.2,276c0-2.2,0.4-4.2,1.2-6.2c0.8-1.9,1.9-3.6,3.3-5c1.4-1.4,3-2.6,5-3.4c1.9-0.8,4-1.3,6.2-1.3
		c2.2,0,4.2,0.4,6.2,1.3c1.9,0.8,3.6,2,5,3.4c1.4,1.4,2.5,3.1,3.3,5c0.8,1.9,1.2,4,1.2,6.2c0,2.3-0.4,4.3-1.2,6.2
		c-0.8,1.9-1.9,3.5-3.3,5c-1.4,1.4-3.1,2.5-5,3.3c-1.9,0.8-4,1.2-6.2,1.2c-2.2,0-4.2-0.4-6.2-1.2c-1.9-0.8-3.6-1.9-5-3.3
		c-1.4-1.4-2.5-3.1-3.3-5C681.6,280.4,681.2,278.3,681.2,276z"/>
	<path class="st0" d="M859,142.7c-16.7-17.3-36.7-26.8-59.3-28.2c-1.8-0.1-3.6-0.1-5.3-0.1h0c-23.1,0-43.5,8.7-60.8,25.8
		c-18.6,18.4-27.7,40.6-27.1,66.1c0.4,24.1,9.7,45.1,27.5,62.5c17.5,17,37.8,25.6,60.5,25.6c0.5,0,1.1,0,1.6,0
		c18.5-0.2,35.5-5.7,50.6-16.5c15.1-10.8,26-25.5,32.4-43.7l1.1-3.2h-3.4h-23.6h-1.5l-0.6,1.4c-11,23.2-28.7,34.7-54.1,35.1l-0.9,0
		c-15.9,0-29.8-5.2-41.5-15.5c-11.3-9.8-18-22.4-20.2-37.2h146.6h2.4v-2.4v-12C883.2,179.2,875.1,159.8,859,142.7z M734.5,189.5
		c3.3-13.8,10.4-25.2,21.1-33.9c11.2-9.1,24.5-13.8,39.4-13.8l0.9,0c15.3,0.2,28.6,5,39.6,14.2c10.3,8.6,17.1,19.9,20.4,33.5H734.5z
		"/>
	<g>
		<g>
			<path class="st0" d="M138.2,295c-1.1,0-2.1,0-3,0c-23.6-0.6-44-9.7-60.4-27S50,229.8,50,205.9c0-24.8,8.9-46.5,26.6-64.3
				s39.1-26.5,63.6-25.6c22.6,0.9,42,9.2,57.8,24.9V62h27.9v143.5c0.6,24.5-8.3,45.9-26.3,63.8C181.9,286.5,161.5,295,138.2,295z
				 M138,143.3c-16.3,0-30.4,6-42.1,17.7c-11.9,11.9-18,26.5-18.3,43.3c-0.2,16.6,5.4,31.5,16.7,43.9c11.2,12.4,25.2,19.1,41.3,19.6
				c17.6,0.9,32.1-4.9,44.5-18c12.3-13,18.3-28.3,17.7-45.8l0,0c-0.4-16.6-6.3-31.1-17.7-43c-11.4-11.8-25.3-17.8-41.4-17.8
				C138.6,143.3,138.3,143.3,138,143.3z"/>
		</g>
		<g>
			<path class="st0" d="M331.6,294.4c-22.7,0-43.1-8.7-60.5-25.6c-17.9-17.4-27.2-38.4-27.5-62.5c-0.6-25.4,8.5-47.7,27.2-66
				s40.9-27,66.1-25.6c22.7,1.4,42.7,10.9,59.4,28.1c16,17.1,24.2,36.5,24.2,57.7v14.8H272.2c2.2,14.4,8.9,26.6,19.8,36.2
				c11.8,10.3,25.9,15.5,41.9,15.2c25.2-0.4,42.6-11.7,53.4-34.7l0.8-1.6h29.4l-1.3,3.9c-6.3,18.3-17.2,33-32.4,43.8
				c-15.1,10.8-32.2,16.3-50.7,16.5C332.6,294.4,332,294.4,331.6,294.4z M272.6,189.2h119.7c-3.3-13.2-10.1-24.1-20-32.5
				c-10.9-9.1-24-13.8-39.1-13.9c-15.1-0.1-28.4,4.3-39.8,13.6C282.9,164.7,275.8,175.7,272.6,189.2z"/>
		</g>
		<g>
			<path class="st0" d="M500.5,293.8h-2.9c-41.9,0-63.2-18.3-63.2-54.2V61.2h27.9v57.7h38.3v26.3h-38.3v90.6c0,22.8,11.6,34,35.5,34
				h2.9v24H500.5z"/>
		</g>
		<g>
			<path class="st0" d="M577.9,294.2c-0.9,0-1.9,0-2.9,0c-23.4-0.8-43.7-10-60.1-27.3s-24.8-38.2-24.8-62.1c0-24.8,9-46.5,26.7-64.3
				c17.7-17.8,39.2-26.3,63.9-25.4c23.9,0.8,44.5,10.1,61.1,27.4c16.7,17.4,24.8,38.3,24,61.9v85.8H638v-21.4
				C621.2,285.6,601.1,294.2,577.9,294.2z M579.1,142.3c-16.7,0-31.3,6-43.1,17.8s-17.9,26.3-18,43.1c-0.4,16.6,5.2,31.4,16.5,43.8
				c11.4,12.4,25.2,19.1,41.2,19.9c17.6,0.7,32.1-5.2,44.5-18.1c12.3-12.9,18.4-28.2,17.9-45.8l0,0c-0.4-16.6-6.3-31-17.8-42.8
				C608.9,148.3,595,142.3,579.1,142.3z"/>
		</g>
	</g>
	<g>
		<g>
			<path id="Leaf__x28_Top_x29__00000052080604488022805680000001126736185391630991_" class="st0" d="M874.2,122.3
				c-2-0.8-5.2-2.3-8.1-5.2c-8.3-8.5-6.7-21.3-6.2-25.1c0.4-3,1.1-6.5,5.5-16c3-6.5,7.5-15.5,13.8-26c2.9,3.5,7,9,10.8,16.4
				c4.9,9.4,8.9,17.1,8.2,27.3c-0.2,2.7-0.9,11.4-7.4,19.2c-3.2,4-6.8,6.4-9.2,7.7c1.8-4.9,3.6-11.8,4.3-20.1
				c0.7-9-0.4-16.5-1.5-21.9c0.5,5.1,0.7,12.4-1,20.8C881.4,109.7,877.3,117.5,874.2,122.3z"/>
			<path id="Leaf__x28_Bottom_x29__00000101822239589651464020000016159003897292724374_" class="st0" d="M885.6,135.1
				c0.6,2.8,1.8,7.2,5,11.5c9.2,12.5,26,13.2,30.9,13.4c0.8,0,1.6,0.1,2.6,0c8-0.2,14-1.9,19.2-3.6c7.8-2.5,11.9-4.1,17.5-6.1
				c4.9-1.7,11.3-3.9,19-6.1c-3.9-4.5-10.1-11-18.7-17.5c-11.1-8.4-20.1-15.2-33.4-16.4c-3.5-0.3-14.8-1.2-26.4,5.4
				c-5.8,3.3-9.7,7.4-12,10.2c6.7-1.2,16-2.1,26.9-1.1c11.7,1.1,21.2,4,27.8,6.7c-6.5-1.8-15.8-3.6-27-3.2
				C903.3,128.6,892.4,132.2,885.6,135.1z"/>
		</g>
	</g>
</g>
</svg>
