<svg xmlns="http://www.w3.org/2000/svg" width="134.51" height="44" viewBox="0 0 134.51 44"><defs><style>.a{fill:#fff;}.b{fill:#00a8df;}</style></defs><g transform="translate(-6.9 -6.2)"><g transform="translate(6.9 6.416)"><g transform="translate(0)"><g transform="translate(0 0.173)"><path class="a" d="M41.235,36.835a15.054,15.054,0,0,1-4.788,11.539,15.268,15.268,0,0,1-11.625,4.637,15.026,15.026,0,0,1-10.935-4.9A15.74,15.74,0,0,1,9.4,36.878a15.948,15.948,0,0,1,4.831-11.647,14.9,14.9,0,0,1,11.5-4.637,15.352,15.352,0,0,1,11.388,5.478V10.5h4.12Zm-4.12-.324A12.139,12.139,0,0,0,33.664,28.1a10.866,10.866,0,0,0-8.153-3.494A11.349,11.349,0,0,0,17.1,28.078a11.672,11.672,0,0,0-3.559,8.476A12.178,12.178,0,0,0,16.8,45.139,10.985,10.985,0,0,0,24.908,49a10.781,10.781,0,0,0,8.735-3.537A12.029,12.029,0,0,0,37.115,36.512Z" transform="translate(-8.861 -9.961)"/><path class="a" d="M23.443,51.611h-.582a15.664,15.664,0,0,1-11.323-5.047A16.4,16.4,0,0,1,6.9,34.939,16.587,16.587,0,0,1,11.882,22.9a15.546,15.546,0,0,1,11.884-4.81,15.809,15.809,0,0,1,10.827,4.659V8h5.2V34.874A15.648,15.648,0,0,1,34.853,46.8,15.764,15.764,0,0,1,23.443,51.611Zm-.237-32.439a14.443,14.443,0,0,0-10.547,4.486A15.491,15.491,0,0,0,8,34.939a15.327,15.327,0,0,0,4.335,10.87A14.653,14.653,0,0,0,22.9,50.533a14.939,14.939,0,0,0,11.237-4.486A14.622,14.622,0,0,0,38.757,34.9V9.078H35.715V25.557l-.949-1.078a14.888,14.888,0,0,0-11-5.306Zm.41,28.427c-.237,0-.453,0-.69-.022a11.556,11.556,0,0,1-8.476-4.033,12.716,12.716,0,0,1-3.408-8.951,12.384,12.384,0,0,1,3.731-8.865,11.835,11.835,0,0,1,8.8-3.623,11.393,11.393,0,0,1,8.52,3.667,12.688,12.688,0,0,1,3.6,8.757,12.614,12.614,0,0,1-3.6,9.339A11.309,11.309,0,0,1,23.616,47.6Zm-.194-24.415a10.891,10.891,0,0,0-7.894,3.3,11.338,11.338,0,0,0-3.408,8.11,11.637,11.637,0,0,0,3.127,8.218,10.578,10.578,0,0,0,7.721,3.667,10.131,10.131,0,0,0,8.325-3.386,11.458,11.458,0,0,0,3.3-8.563h0a11.674,11.674,0,0,0-3.3-8.045,10.393,10.393,0,0,0-7.743-3.322A.274.274,0,0,1,23.421,23.184Z" transform="translate(-6.9 -8)"/></g><g transform="translate(36.23 9.959)"><path class="a" d="M209.433,73.686h-27.8a11.46,11.46,0,0,0,3.969,7.722,11.885,11.885,0,0,0,8.2,3,10.948,10.948,0,0,0,10.482-6.794h4.4a16.037,16.037,0,0,1-15.055,10.935,15.281,15.281,0,0,1-11.237-4.637,16.144,16.144,0,0,1-.086-23.294,15.1,15.1,0,0,1,11.971-4.7,15.97,15.97,0,0,1,10.763,5.112,14.865,14.865,0,0,1,4.4,10.439Zm-4.076-3.8a11.971,11.971,0,0,0-4.076-7.031,11.789,11.789,0,0,0-7.657-2.739,11.655,11.655,0,0,0-7.786,2.653,11.866,11.866,0,0,0-4.206,7.118Z" transform="translate(-176.838 -55.347)"/><path class="a" d="M191.382,87.092a15.871,15.871,0,0,1-11.345-4.81,16.715,16.715,0,0,1-.086-24.07,15.767,15.767,0,0,1,12.38-4.81,16.477,16.477,0,0,1,11.108,5.263,15.462,15.462,0,0,1,4.551,10.806v2.761H180.275A10.964,10.964,0,0,0,183.984,79a11.377,11.377,0,0,0,7.851,2.847,10.4,10.4,0,0,0,10.008-6.471l.151-.3h5.478l-.259.712a16.536,16.536,0,0,1-15.551,11.28C191.576,87.071,191.469,87.092,191.382,87.092Zm0-32.633a14.761,14.761,0,0,0-10.655,4.508,15.623,15.623,0,0,0,.065,22.539,14.762,14.762,0,0,0,10.849,4.486,15.492,15.492,0,0,0,8.886-2.89,15.244,15.244,0,0,0,5.392-6.945h-3.278a11.5,11.5,0,0,1-10.806,6.794,12.365,12.365,0,0,1-8.563-3.127,11.992,11.992,0,0,1-4.141-8.067l-.065-.6h27.866V69.471a14.349,14.349,0,0,0-4.249-10.051,15.388,15.388,0,0,0-10.4-4.939C191.986,54.481,191.684,54.459,191.382,54.459Zm12.682,14H179l.129-.647a12.735,12.735,0,0,1,20.533-7.333,12.5,12.5,0,0,1,4.249,7.333Zm-23.725-1.078h22.388a11.421,11.421,0,0,0-3.753-6.082,11.561,11.561,0,0,0-18.635,6.082Z" transform="translate(-174.878 -53.376)"/></g><g transform="translate(71.974)"><path class="a" d="M354.4,52.168q-11.291,0-11.3-9.62V9.7h4.12V20.506h7.161v3.861H347.22V41.859q0,6.891,7.161,6.9v3.408Z" transform="translate(-342.561 -9.161)"/><path class="a" d="M352.98,50.747h-.539c-7.851,0-11.841-3.408-11.841-10.159V7.2h5.2V18.006h7.182v4.939H345.82V39.9c0,4.271,2.178,6.363,6.621,6.363h.539Zm-11.3-42.468V40.61c0,5.953,3.343,8.929,10.223,9.059V47.317c-4.7-.173-7.161-2.739-7.161-7.42V21.867H351.9V19.084h-7.161V8.278Z" transform="translate(-340.6 -7.2)"/></g><g transform="translate(82.391 10.078)"><path class="a" d="M423.413,72.729V88.258h-4.12V83.427a15.468,15.468,0,0,1-23.208.6A15.74,15.74,0,0,1,391.6,72.793a15.948,15.948,0,0,1,4.831-11.647,14.866,14.866,0,0,1,11.561-4.594,15.672,15.672,0,0,1,11.086,4.961A15.017,15.017,0,0,1,423.413,72.729Zm-4.141-.3a11.981,11.981,0,0,0-3.494-8.39,10.874,10.874,0,0,0-8.11-3.494,11.446,11.446,0,0,0-8.433,3.494A11.69,11.69,0,0,0,395.7,72.47a12.041,12.041,0,0,0,3.235,8.584,11.156,11.156,0,0,0,8.088,3.882,10.936,10.936,0,0,0,8.735-3.559A12.055,12.055,0,0,0,419.272,72.427Z" transform="translate(-391.018 -55.976)"/><path class="a" d="M405.335,87.46H404.8a15.869,15.869,0,0,1-11.259-5.112A16.313,16.313,0,0,1,388.9,70.723a16.587,16.587,0,0,1,4.982-12.035,15.385,15.385,0,0,1,11.97-4.745,16.163,16.163,0,0,1,11.453,5.133,15.454,15.454,0,0,1,4.486,11.6V86.748h-5.2V82.736A15.337,15.337,0,0,1,405.335,87.46Zm-.173-32.439a14.354,14.354,0,0,0-10.5,4.443,15.512,15.512,0,0,0-4.68,11.28,15.327,15.327,0,0,0,4.335,10.87,14.942,14.942,0,0,0,22.41-.582l.949-1.078v5.737h3.041V70.68a14.434,14.434,0,0,0-4.206-10.827,15.2,15.2,0,0,0-10.72-4.81A5.46,5.46,0,0,0,405.162,55.021Zm.3,28.427a4.689,4.689,0,0,1-.561-.022,11.753,11.753,0,0,1-8.455-4.076,12.51,12.51,0,0,1-3.386-8.951,12.246,12.246,0,0,1,3.688-8.8,12.084,12.084,0,0,1,8.822-3.645,11.473,11.473,0,0,1,8.5,3.645,12.689,12.689,0,0,1,3.645,8.757h0a12.744,12.744,0,0,1-3.667,9.339A11.514,11.514,0,0,1,405.464,83.448Zm.108-24.394a11.073,11.073,0,0,0-8.067,3.322,11.27,11.27,0,0,0-3.386,8.067,11.416,11.416,0,0,0,3.106,8.2,10.781,10.781,0,0,0,7.722,3.71,10.376,10.376,0,0,0,8.325-3.408,11.619,11.619,0,0,0,3.365-8.563h0a11.514,11.514,0,0,0-3.343-8.023A10.509,10.509,0,0,0,405.572,59.054Z" transform="translate(-388.9 -53.927)"/></g></g></g><path class="b" d="M554.466,20.327l1.014-.108a40.123,40.123,0,0,1,6.471-.971,41.489,41.489,0,0,1,6.47.971l1.014.108a.8.8,0,0,0,.69-1.208L562.662,6.588a.808.808,0,0,0-1.38,0l-7.506,12.531A.8.8,0,0,0,554.466,20.327Z" transform="translate(-428.832 0)"/></g></svg>