<?xml version="1.0" encoding="utf-8"?>
<!-- Generator: Adobe Illustrator 28.1.0, SVG Export Plug-In . SVG Version: 6.00 Build 0)  -->
<svg version="1.1" id="Layer_1" xmlns="http://www.w3.org/2000/svg" xmlns:xlink="http://www.w3.org/1999/xlink" x="0px" y="0px"
	 viewBox="0 0 134.5 32.9" style="enable-background:new 0 0 134.5 32.9;" xml:space="preserve">
<style type="text/css">
	.st0{fill:#FFFFFF;}
</style>
<g>
	<path class="st0" d="M54.2,32.3c-5.7,0-8.5-2.4-8.5-7.2V0.4h3.1v8.1h5.4v2.9h-5.4v13.1c0,3.5,1.8,5.2,5.4,5.2L54.2,32.3L54.2,32.3z
		"/>
	<path class="st0" d="M65.4,32.3c-5.7,0-8.5-2.4-8.5-7.2V0.4H60v8.1h5.4v2.9H60v13.1c0,3.5,1.8,5.2,5.4,5.2L65.4,32.3L65.4,32.3z"/>
	<path class="st0" d="M88.8,21.3H67.9c0.2,2.3,1.2,4.3,3,5.8c1.7,1.5,3.8,2.3,6.2,2.2c3.7-0.1,6.3-1.8,7.9-5.1h3.3
		c-0.9,2.5-2.3,4.5-4.4,6c-2.1,1.5-4.4,2.2-6.9,2.2c-3.2,0.1-6-1.1-8.4-3.5c-2.4-2.4-3.7-5.2-3.8-8.5c-0.1-3.5,1.1-6.5,3.7-9
		c2.5-2.5,5.5-3.7,9-3.5c3.1,0.2,5.8,1.5,8.1,3.8c2.2,2.3,3.3,5,3.3,7.8L88.8,21.3L88.8,21.3z M85.8,18.4c-0.4-2.2-1.5-3.9-3.1-5.3
		c-1.6-1.3-3.5-2-5.8-2.1c-2.2,0-4.2,0.6-5.9,2c-1.7,1.4-2.7,3.1-3.2,5.3L85.8,18.4L85.8,18.4z"/>
</g>
</svg>
