<?xml version="1.0" encoding="utf-8"?>
<!-- Generator: Adobe Illustrator 28.1.0, SVG Export Plug-In . SVG Version: 6.00 Build 0)  -->
<svg version="1.1" id="Layer_1" xmlns="http://www.w3.org/2000/svg" xmlns:xlink="http://www.w3.org/1999/xlink" x="0px" y="0px"
	 viewBox="0 0 134.5 32.9" style="enable-background:new 0 0 134.5 32.9;" xml:space="preserve">
<style type="text/css">
	.st0{fill:#FFFFFF;}
</style>
<g>
	<path class="st0" d="M16.3,31.5h-3L0.7,0.7h3.2L16.3,31.5L16.3,31.5L16.3,31.5z"/>
	<g>
		<g>
			<path class="st0" d="M33.3,0.7L20.7,31.5h-3L5.1,0.7h3.2l10.9,27l10.9-27H33.3L33.3,0.7z"/>
			<path class="st0" d="M38.5,31.5h-3V8.7h3V31.5z"/>
			<path class="st0" d="M74.5,31.5h-3.2v-14c0-1.8-0.5-3.3-1.5-4.5c-1-1.2-2.3-1.9-4-1.9c-1.6,0-3.1,0.5-4.3,1.6s-1.8,2.5-1.8,4.1
				v14.6h-3.2V16.8c0-1.6-0.6-3-1.8-4.1c-1.2-1.1-2.7-1.6-4.3-1.6s-3,0.6-4,1.9c-1,1.2-1.5,2.7-1.5,4.5v14h-3.2V17.9
				c0-2.8,0.8-5.1,2.4-6.9c1.5-1.6,3.5-2.5,6-2.8c3.3-0.3,5.9,1.1,7.9,4.2c2-3.1,4.6-4.5,7.9-4.2c2.5,0.2,4.5,1.1,6,2.8
				c1.6,1.7,2.5,4,2.5,6.9C74.5,17.9,74.5,31.5,74.5,31.5z"/>
			<path class="st0" d="M101.1,20.1v11.4h-3v-3.5c-2.5,2.8-5.5,4.2-9.1,4.1c-3.1-0.1-5.8-1.3-8-3.6c-2.2-2.3-3.3-5.1-3.3-8.3
				s1.2-6.2,3.5-8.6c2.4-2.4,5.2-3.5,8.5-3.4c3.2,0.1,5.9,1.3,8.1,3.7C100.2,14.1,101.2,16.9,101.1,20.1L101.1,20.1z M98.1,19.8
				c-0.1-2.4-0.9-4.5-2.6-6.2c-1.7-1.7-3.6-2.6-6-2.6c-2.3,0-4.5,0.9-6.2,2.6c-1.7,1.7-2.6,3.8-2.6,6.2c-0.1,2.4,0.7,4.5,2.4,6.3
				s3.6,2.8,5.9,2.9c2.5,0.1,4.6-0.8,6.4-2.6C97.3,24.6,98.1,22.4,98.1,19.8L98.1,19.8z"/>
			<path class="st0" d="M113.3,11.3c-1.4,0.1-2.6,0.4-3.4,1.2c-0.9,0.7-1.5,1.3-1.8,1.9c-0.5,0.9-0.8,2-0.8,3.5v13.6h-3.2V8.7h2.8
				V12c0.6-1.2,1.6-2.2,2.8-2.8c1.1-0.6,2.3-0.9,3.5-0.8L113.3,11.3L113.3,11.3z"/>
			<path class="st0" d="M133.9,31.5h-3.9l-7.4-8.9l-3.6,4.6v4.4h-3.3V0.7h3.2v21.7l10.6-13.7h3.8l-8.7,11.5L133.9,31.5L133.9,31.5z"
				/>
		</g>
		<circle class="st0" cx="37" cy="4.4" r="1.6"/>
	</g>
</g>
</svg>
